<svg width="40" height="40" viewBox="0 0 40 40" fill="none" xmlns="http://www.w3.org/2000/svg">
<path d="M32 0C36.4183 0 40 3.58172 40 8V32C40 36.4183 36.4183 40 32 40H8C3.58172 40 0 36.4183 0 32V8C0 3.58172 3.58172 0 8 0H32Z" fill="#3B82F6"/>
<path d="M32 0C36.4183 0 40 3.58172 40 8V32C40 36.4183 36.4183 40 32 40H8C3.58172 40 0 36.4183 0 32V8C0 3.58172 3.58172 0 8 0H32Z" stroke="#E5E7EB"/>
<path d="M27.875 34H12.125V6H27.875V34Z" stroke="#E5E7EB"/>
<g clip-path="url(#clip0_3_26)">
<path d="M16.625 10.25C17.2473 10.25 17.75 10.7527 17.75 11.375V12.5H22.25V11.375C22.25 10.7527 22.7527 10.25 23.375 10.25C23.9973 10.25 24.5 10.7527 24.5 11.375V12.5H26.1875C27.1191 12.5 27.875 13.2559 27.875 14.1875V15.875H12.125V14.1875C12.125 13.2559 12.8809 12.5 13.8125 12.5H15.5V11.375C15.5 10.7527 16.0027 10.25 16.625 10.25ZM12.125 17H27.875V26.5625C27.875 27.4941 27.1191 28.25 26.1875 28.25H13.8125C12.8809 28.25 12.125 27.4941 12.125 26.5625V17ZM23.6914 20.9727C24.0219 20.6422 24.0219 20.1078 23.6914 19.7809C23.3609 19.4539 22.8266 19.4504 22.4996 19.7809L19.1598 23.1207L17.5074 21.4684C17.177 21.1379 16.6426 21.1379 16.3156 21.4684C15.9887 21.7988 15.9852 22.3332 16.3156 22.6602L18.5656 24.9102C18.8961 25.2406 19.4305 25.2406 19.7574 24.9102L23.6914 20.9727Z" fill="white"/>
</g>
<defs>
<clipPath id="clip0_3_26">
<path d="M12.125 10.25H27.875V28.25H12.125V10.25Z" fill="white"/>
</clipPath>
</defs>
</svg>
